<?xml version="1.0" encoding="utf-8"?>
<svg viewBox="0 0 154 87" xmlns="http://www.w3.org/2000/svg">
  <path d="M 11.849 44.138 C 11.87 46.534 12.026 48.67 12.318 50.545 C 12.609 52.399 13.016 53.972 13.536 55.263 C 14.057 56.534 14.693 57.503 15.443 58.17 C 16.193 58.836 17.047 59.17 18.005 59.17 C 19.318 59.17 20.401 58.649 21.255 57.607 C 22.13 56.545 22.776 55.097 23.193 53.263 C 22.109 53.034 21.078 52.607 20.099 51.982 C 19.12 51.357 18.255 50.586 17.505 49.67 C 16.755 48.732 16.151 47.659 15.693 46.451 C 15.255 45.243 15.036 43.93 15.036 42.513 C 15.036 41.347 15.182 40.326 15.474 39.451 C 15.786 38.555 16.193 37.816 16.693 37.232 C 17.193 36.628 17.766 36.18 18.411 35.888 C 19.078 35.576 19.776 35.42 20.505 35.42 C 21.359 35.42 22.234 35.67 23.13 36.17 C 24.026 36.649 24.839 37.378 25.568 38.357 C 26.297 39.316 26.891 40.524 27.349 41.982 C 27.807 43.441 28.036 45.138 28.036 47.076 C 28.036 47.805 27.995 48.524 27.911 49.232 C 27.828 49.941 27.703 50.628 27.536 51.295 C 28.536 51.003 29.443 50.534 30.255 49.888 C 31.089 49.243 31.776 48.388 32.318 47.326 L 32.661 46.67 L 33.943 47.638 L 33.599 48.295 C 32.891 49.711 31.943 50.847 30.755 51.701 C 29.589 52.534 28.318 53.076 26.943 53.326 C 26.568 54.388 26.078 55.378 25.474 56.295 C 24.891 57.191 24.214 57.972 23.443 58.638 C 22.693 59.305 21.839 59.826 20.88 60.201 C 19.943 60.576 18.922 60.763 17.818 60.763 C 16.255 60.763 14.818 60.43 13.505 59.763 C 12.213 59.097 11.088 58.013 10.13 56.513 C 9.193 55.013 8.453 53.045 7.911 50.607 C 7.391 48.149 7.13 45.138 7.13 41.576 C 7.13 36.618 7.359 32.399 7.818 28.92 C 8.276 25.42 8.88 22.576 9.63 20.388 C 10.38 18.18 11.245 16.576 12.224 15.576 C 13.203 14.555 14.213 14.045 15.255 14.045 C 15.901 14.045 16.432 14.305 16.849 14.826 C 17.266 15.326 17.474 16.243 17.474 17.576 C 17.474 18.618 17.391 19.805 17.224 21.138 C 17.057 22.472 16.839 23.899 16.568 25.42 C 16.297 26.941 15.974 28.524 15.599 30.17 C 15.224 31.795 14.828 33.42 14.411 35.045 C 13.995 36.649 13.568 38.232 13.13 39.795 C 12.693 41.336 12.266 42.784 11.849 44.138 Z M 17.099 42.263 C 17.099 43.493 17.266 44.628 17.599 45.67 C 17.953 46.691 18.422 47.597 19.005 48.388 C 19.589 49.159 20.266 49.805 21.036 50.326 C 21.807 50.847 22.63 51.211 23.505 51.42 C 23.609 50.836 23.672 50.232 23.693 49.607 C 23.734 48.961 23.755 48.305 23.755 47.638 C 23.755 46.159 23.641 44.826 23.411 43.638 C 23.182 42.43 22.88 41.409 22.505 40.576 C 22.13 39.722 21.693 39.066 21.193 38.607 C 20.693 38.149 20.182 37.92 19.661 37.92 C 18.953 37.92 18.349 38.305 17.849 39.076 C 17.349 39.826 17.099 40.888 17.099 42.263 Z M 15.443 18.326 C 15.443 17.888 15.391 17.545 15.286 17.295 C 15.182 17.045 15.016 16.92 14.786 16.92 C 14.557 16.92 14.328 17.243 14.099 17.888 C 13.87 18.534 13.641 19.409 13.411 20.513 C 13.203 21.618 13.005 22.899 12.818 24.357 C 12.651 25.816 12.495 27.368 12.349 29.013 C 12.203 30.638 12.088 32.305 12.005 34.013 C 11.922 35.722 11.87 37.368 11.849 38.951 C 12.349 37.118 12.818 35.243 13.255 33.326 C 13.693 31.388 14.068 29.513 14.38 27.701 C 14.713 25.888 14.974 24.18 15.161 22.576 C 15.349 20.951 15.443 19.534 15.443 18.326 Z M 58.88 47.638 L 58.536 48.295 C 57.828 49.711 56.88 50.847 55.693 51.701 C 54.526 52.534 53.255 53.076 51.88 53.326 C 51.505 54.388 51.016 55.378 50.411 56.295 C 49.828 57.191 49.151 57.972 48.38 58.638 C 47.63 59.305 46.776 59.826 45.818 60.201 C 44.88 60.576 43.859 60.763 42.755 60.763 C 41.151 60.763 39.703 60.43 38.411 59.763 C 37.141 59.076 36.057 58.159 35.161 57.013 C 34.266 55.847 33.578 54.493 33.099 52.951 C 32.62 51.388 32.38 49.722 32.38 47.951 C 32.38 46.409 32.557 45.013 32.911 43.763 C 33.266 42.493 33.714 41.368 34.255 40.388 C 34.797 39.388 35.401 38.524 36.068 37.795 C 36.734 37.045 37.391 36.43 38.036 35.951 C 38.682 35.472 39.266 35.118 39.786 34.888 C 40.328 34.638 40.734 34.513 41.005 34.513 L 41.411 35.607 C 40.557 36.232 39.797 37.107 39.13 38.232 C 38.547 39.191 38.016 40.461 37.536 42.045 C 37.078 43.628 36.849 45.597 36.849 47.951 C 36.849 49.388 36.984 50.784 37.255 52.138 C 37.526 53.493 37.922 54.691 38.443 55.732 C 38.964 56.774 39.599 57.607 40.349 58.232 C 41.12 58.857 41.984 59.17 42.943 59.17 C 44.255 59.17 45.339 58.649 46.193 57.607 C 47.068 56.545 47.714 55.097 48.13 53.263 C 47.047 53.034 46.016 52.607 45.036 51.982 C 44.057 51.357 43.193 50.586 42.443 49.67 C 41.693 48.732 41.089 47.659 40.63 46.451 C 40.193 45.243 39.974 43.93 39.974 42.513 C 39.974 41.347 40.12 40.326 40.411 39.451 C 40.724 38.555 41.13 37.816 41.63 37.232 C 42.13 36.628 42.703 36.18 43.349 35.888 C 44.016 35.576 44.714 35.42 45.443 35.42 C 46.297 35.42 47.172 35.67 48.068 36.17 C 48.964 36.649 49.776 37.378 50.505 38.357 C 51.234 39.316 51.828 40.524 52.286 41.982 C 52.745 43.441 52.974 45.138 52.974 47.076 C 52.974 47.805 52.932 48.524 52.849 49.232 C 52.766 49.941 52.641 50.628 52.474 51.295 C 53.474 51.003 54.38 50.534 55.193 49.888 C 56.026 49.243 56.714 48.388 57.255 47.326 L 57.599 46.67 L 58.88 47.638 Z M 42.036 42.263 C 42.036 43.493 42.203 44.628 42.536 45.67 C 42.891 46.691 43.359 47.597 43.943 48.388 C 44.526 49.159 45.203 49.805 45.974 50.326 C 46.745 50.847 47.568 51.211 48.443 51.42 C 48.547 50.836 48.609 50.232 48.63 49.607 C 48.672 48.961 48.693 48.305 48.693 47.638 C 48.693 46.159 48.578 44.826 48.349 43.638 C 48.12 42.43 47.818 41.409 47.443 40.576 C 47.068 39.722 46.63 39.066 46.13 38.607 C 45.63 38.149 45.12 37.92 44.599 37.92 C 43.891 37.92 43.286 38.305 42.786 39.076 C 42.286 39.826 42.036 40.888 42.036 42.263 Z M 83.818 47.638 L 83.474 48.295 C 82.766 49.711 81.818 50.847 80.63 51.701 C 79.464 52.534 78.193 53.076 76.818 53.326 C 76.443 54.388 75.953 55.378 75.349 56.295 C 74.766 57.191 74.089 57.972 73.318 58.638 C 72.568 59.305 71.714 59.826 70.755 60.201 C 69.818 60.576 68.797 60.763 67.693 60.763 C 66.089 60.763 64.641 60.43 63.349 59.763 C 62.078 59.076 60.995 58.159 60.099 57.013 C 59.203 55.847 58.516 54.493 58.036 52.951 C 57.557 51.388 57.318 49.722 57.318 47.951 C 57.318 46.409 57.495 45.013 57.849 43.763 C 58.203 42.493 58.651 41.368 59.193 40.388 C 59.734 39.388 60.339 38.524 61.005 37.795 C 61.672 37.045 62.328 36.43 62.974 35.951 C 63.62 35.472 64.203 35.118 64.724 34.888 C 65.266 34.638 65.672 34.513 65.943 34.513 L 66.349 35.607 C 65.495 36.232 64.734 37.107 64.068 38.232 C 63.484 39.191 62.953 40.461 62.474 42.045 C 62.016 43.628 61.786 45.597 61.786 47.951 C 61.786 49.388 61.922 50.784 62.193 52.138 C 62.464 53.493 62.859 54.691 63.38 55.732 C 63.901 56.774 64.536 57.607 65.286 58.232 C 66.057 58.857 66.922 59.17 67.88 59.17 C 69.193 59.17 70.276 58.649 71.13 57.607 C 72.005 56.545 72.651 55.097 73.068 53.263 C 71.984 53.034 70.953 52.607 69.974 51.982 C 68.995 51.357 68.13 50.586 67.38 49.67 C 66.63 48.732 66.026 47.659 65.568 46.451 C 65.13 45.243 64.911 43.93 64.911 42.513 C 64.911 41.347 65.057 40.326 65.349 39.451 C 65.661 38.555 66.068 37.816 66.568 37.232 C 67.068 36.628 67.641 36.18 68.286 35.888 C 68.953 35.576 69.651 35.42 70.38 35.42 C 71.234 35.42 72.109 35.67 73.005 36.17 C 73.901 36.649 74.714 37.378 75.443 38.357 C 76.172 39.316 76.766 40.524 77.224 41.982 C 77.682 43.441 77.911 45.138 77.911 47.076 C 77.911 47.805 77.87 48.524 77.786 49.232 C 77.703 49.941 77.578 50.628 77.411 51.295 C 78.411 51.003 79.318 50.534 80.13 49.888 C 80.964 49.243 81.651 48.388 82.193 47.326 L 82.536 46.67 L 83.818 47.638 Z M 66.974 42.263 C 66.974 43.493 67.141 44.628 67.474 45.67 C 67.828 46.691 68.297 47.597 68.88 48.388 C 69.464 49.159 70.141 49.805 70.911 50.326 C 71.682 50.847 72.505 51.211 73.38 51.42 C 73.484 50.836 73.547 50.232 73.568 49.607 C 73.609 48.961 73.63 48.305 73.63 47.638 C 73.63 46.159 73.516 44.826 73.286 43.638 C 73.057 42.43 72.755 41.409 72.38 40.576 C 72.005 39.722 71.568 39.066 71.068 38.607 C 70.568 38.149 70.057 37.92 69.536 37.92 C 68.828 37.92 68.224 38.305 67.724 39.076 C 67.224 39.826 66.974 40.888 66.974 42.263 Z M 100.818 49.888 C 100.818 51.305 100.599 52.67 100.161 53.982 C 99.745 55.274 99.12 56.43 98.286 57.451 C 97.474 58.451 96.453 59.253 95.224 59.857 C 94.016 60.461 92.63 60.763 91.068 60.763 C 89.943 60.763 88.932 60.586 88.036 60.232 C 87.161 59.857 86.411 59.368 85.786 58.763 C 85.161 58.138 84.682 57.441 84.349 56.67 C 84.016 55.878 83.849 55.066 83.849 54.232 C 83.849 53.399 84.005 52.628 84.318 51.92 C 84.651 51.191 85.089 50.576 85.63 50.076 C 86.193 49.555 86.828 49.149 87.536 48.857 C 88.245 48.566 88.995 48.42 89.786 48.42 C 90.286 48.42 90.807 48.482 91.349 48.607 L 91.349 49.513 C 90.682 49.513 90.026 49.649 89.38 49.92 C 88.755 50.191 88.193 50.566 87.693 51.045 C 87.214 51.503 86.828 52.066 86.536 52.732 C 86.245 53.378 86.099 54.076 86.099 54.826 C 86.099 56.201 86.568 57.305 87.505 58.138 C 88.464 58.951 89.766 59.357 91.411 59.357 C 92.245 59.357 93.005 59.201 93.693 58.888 C 94.38 58.555 94.964 58.107 95.443 57.545 C 95.943 56.961 96.318 56.274 96.568 55.482 C 96.839 54.691 96.974 53.826 96.974 52.888 C 96.974 51.993 96.797 51.159 96.443 50.388 C 96.089 49.618 95.62 48.888 95.036 48.201 C 94.453 47.513 93.786 46.868 93.036 46.263 C 92.307 45.659 91.557 45.086 90.786 44.545 C 90.036 43.982 89.297 43.441 88.568 42.92 C 87.839 42.399 87.203 41.878 86.661 41.357 L 83.536 48.295 L 82.255 47.326 L 85.443 40.357 C 84.672 39.628 84.099 38.941 83.724 38.295 C 83.37 37.628 83.193 36.836 83.193 35.92 C 83.193 35.42 83.276 34.951 83.443 34.513 C 83.63 34.055 83.87 33.67 84.161 33.357 C 84.474 33.024 84.828 32.763 85.224 32.576 C 85.62 32.388 86.036 32.295 86.474 32.295 C 87.266 32.295 87.859 32.524 88.255 32.982 C 88.651 33.42 88.849 33.972 88.849 34.638 C 88.849 34.951 88.818 35.284 88.755 35.638 C 88.693 35.972 88.609 36.316 88.505 36.67 C 88.422 37.003 88.328 37.316 88.224 37.607 C 88.141 37.899 88.068 38.149 88.005 38.357 C 88.63 38.836 89.38 39.305 90.255 39.763 C 91.13 40.201 92.036 40.659 92.974 41.138 C 93.932 41.618 94.88 42.138 95.818 42.701 C 96.755 43.263 97.589 43.888 98.318 44.576 C 99.068 45.263 99.672 46.045 100.13 46.92 C 100.589 47.795 100.818 48.784 100.818 49.888 Z M 86.536 33.701 C 86.245 33.701 86.005 33.805 85.818 34.013 C 85.651 34.201 85.568 34.461 85.568 34.795 C 85.568 35.17 85.661 35.586 85.849 36.045 C 86.036 36.503 86.37 36.951 86.849 37.388 C 87.057 36.951 87.214 36.524 87.318 36.107 C 87.443 35.691 87.505 35.274 87.505 34.857 C 87.505 34.524 87.411 34.253 87.224 34.045 C 87.057 33.816 86.828 33.701 86.536 33.701 Z M 103.255 50.513 C 103.255 48.305 103.339 46.086 103.505 43.857 C 103.672 41.628 103.891 39.368 104.161 37.076 L 101.318 37.076 L 101.661 35.17 L 104.411 35.17 C 104.703 33.045 104.995 30.92 105.286 28.795 C 105.599 26.649 105.88 24.503 106.13 22.357 L 109.318 22.357 C 109.276 22.816 109.214 23.482 109.13 24.357 C 109.068 25.211 108.984 26.211 108.88 27.357 C 108.797 28.482 108.714 29.722 108.63 31.076 C 108.547 32.409 108.464 33.774 108.38 35.17 L 114.443 35.17 L 114.13 37.076 L 108.255 37.076 C 108.172 38.263 108.099 39.43 108.036 40.576 C 107.974 41.722 107.912 42.816 107.849 43.857 C 107.807 44.878 107.776 45.826 107.755 46.701 C 107.734 47.555 107.724 48.295 107.724 48.92 C 107.724 50.503 107.766 51.826 107.849 52.888 C 107.953 53.951 108.099 54.805 108.286 55.451 C 108.495 56.097 108.745 56.555 109.036 56.826 C 109.349 57.097 109.703 57.232 110.099 57.232 C 110.62 57.232 111.193 56.972 111.818 56.451 C 112.464 55.909 113.13 55.191 113.818 54.295 C 114.505 53.399 115.203 52.357 115.912 51.17 C 116.62 49.961 117.307 48.68 117.974 47.326 L 118.286 46.67 L 119.568 47.638 L 119.255 48.295 C 118.297 50.232 117.339 51.972 116.38 53.513 C 115.443 55.055 114.516 56.368 113.599 57.451 C 112.682 58.513 111.786 59.336 110.912 59.92 C 110.036 60.482 109.193 60.763 108.38 60.763 C 107.568 60.763 106.839 60.576 106.193 60.201 C 105.568 59.826 105.036 59.232 104.599 58.42 C 104.161 57.586 103.828 56.524 103.599 55.232 C 103.37 53.941 103.255 52.368 103.255 50.513 Z M 120.286 36.045 C 120.37 35.836 120.568 35.67 120.88 35.545 C 121.193 35.42 121.526 35.336 121.88 35.295 C 122.234 35.232 122.568 35.201 122.88 35.201 C 123.193 35.18 123.401 35.17 123.505 35.17 C 123.818 35.17 124.016 35.253 124.099 35.42 C 124.203 35.566 124.255 35.805 124.255 36.138 C 124.255 36.305 124.203 36.68 124.099 37.263 C 123.995 37.826 123.859 38.534 123.693 39.388 C 123.547 40.243 123.38 41.211 123.193 42.295 C 123.026 43.378 122.859 44.493 122.693 45.638 C 122.547 46.784 122.422 47.951 122.318 49.138 C 122.214 50.305 122.162 51.409 122.162 52.451 C 122.162 54.263 122.464 55.628 123.068 56.545 C 123.672 57.441 124.37 57.888 125.162 57.888 C 126.536 57.888 127.755 56.878 128.818 54.857 C 129.88 52.836 130.984 49.878 132.13 45.982 L 132.13 36.888 C 132.13 36.534 132.286 36.253 132.599 36.045 C 132.932 35.816 133.307 35.638 133.724 35.513 C 134.141 35.388 134.547 35.305 134.943 35.263 C 135.339 35.201 135.62 35.17 135.786 35.17 C 136.432 35.17 136.755 35.493 136.755 36.138 C 136.755 36.368 136.734 36.753 136.693 37.295 C 136.672 37.816 136.641 38.441 136.599 39.17 C 136.557 39.878 136.516 40.67 136.474 41.545 C 136.453 42.399 136.443 43.263 136.443 44.138 L 136.443 56.857 C 136.818 56.378 137.286 55.743 137.849 54.951 C 138.432 54.159 139.026 53.316 139.63 52.42 C 140.255 51.524 140.849 50.628 141.412 49.732 C 141.995 48.836 142.464 48.034 142.818 47.326 L 143.162 46.67 L 144.443 47.638 L 144.099 48.295 C 143.662 49.17 143.141 50.076 142.536 51.013 C 141.932 51.951 141.286 52.899 140.599 53.857 C 139.932 54.795 139.234 55.732 138.505 56.67 C 137.797 57.586 137.109 58.461 136.443 59.295 L 136.443 66.201 C 136.443 68.118 136.266 69.743 135.912 71.076 C 135.578 72.43 135.109 73.524 134.505 74.357 C 133.901 75.211 133.193 75.826 132.38 76.201 C 131.568 76.576 130.682 76.763 129.724 76.763 C 129.12 76.763 128.557 76.67 128.036 76.482 C 127.536 76.295 127.099 76.013 126.724 75.638 C 126.349 75.284 126.057 74.847 125.849 74.326 C 125.641 73.826 125.536 73.253 125.536 72.607 C 125.536 71.67 125.703 70.732 126.036 69.795 C 126.391 68.857 126.87 67.888 127.474 66.888 C 128.099 65.888 128.818 64.857 129.63 63.795 C 130.443 62.753 131.318 61.659 132.255 60.513 L 132.255 51.045 C 131.734 52.461 131.172 53.774 130.568 54.982 C 129.964 56.17 129.307 57.191 128.599 58.045 C 127.891 58.899 127.13 59.566 126.318 60.045 C 125.505 60.524 124.63 60.763 123.693 60.763 C 123.026 60.763 122.339 60.659 121.63 60.451 C 120.943 60.222 120.297 59.816 119.693 59.232 C 119.109 58.649 118.63 57.868 118.255 56.888 C 117.88 55.888 117.693 54.618 117.693 53.076 C 117.693 51.326 117.797 49.545 118.005 47.732 C 118.214 45.92 118.453 44.232 118.724 42.67 C 119.016 41.107 119.307 39.743 119.599 38.576 C 119.891 37.388 120.12 36.545 120.286 36.045 Z M 129.38 74.857 C 129.714 74.857 130.047 74.784 130.38 74.638 C 130.734 74.513 131.047 74.211 131.318 73.732 C 131.589 73.253 131.807 72.545 131.974 71.607 C 132.162 70.67 132.255 69.399 132.255 67.795 L 132.255 63.076 C 131.547 63.951 130.891 64.795 130.286 65.607 C 129.703 66.441 129.193 67.243 128.755 68.013 C 128.318 68.805 127.974 69.566 127.724 70.295 C 127.474 71.024 127.349 71.732 127.349 72.42 C 127.349 73.066 127.526 73.628 127.88 74.107 C 128.234 74.607 128.734 74.857 129.38 74.857 Z" fill="black"/>
</svg>