<?xml version="1.0" encoding="utf-8"?>
<svg viewBox="0 0 430 378" xmlns="http://www.w3.org/2000/svg" xmlns:bx="https://boxy-svg.com">
  <polygon style="fill:#302F2F;" points="184.92 263.409 186.12 273.709 212.62 280.309 239.12 273.709 240.32 263.409" bx:origin="0.511383 -4.876274"/>
  <path style="fill: rgb(101, 222, 214);" d="M 239.12 196.109 C 241.02 184.609 231.62 163.709 231.62 163.709 C 227.12 163.109 222.42 162.909 218.92 162.909 L 206.32 162.909 C 202.72 162.909 198.12 163.109 193.62 163.709 C 193.62 163.709 184.22 184.709 186.12 196.109 C 187.92 206.809 190.92 222.509 184.92 263.409 L 212.62 263.409 L 240.32 263.409 C 234.32 222.509 237.32 206.809 239.12 196.109 Z" bx:origin="0.511383 0.18001"/>
  <path style="fill:#F4B382;" d="M 222.52 270.709 C 207.72 276.009 190.92 281.809 186.82 281.809 C 169.82 281.909 156.22 288.109 157.02 291.709 C 157.02 291.709 197.02 292.709 226.72 291.709 C 238.22 291.409 234.02 266.709 222.52 270.709 Z" bx:origin="0.735094 -4.079551"/>
  <path style="fill:#3D3C3C;" d="M 222.52 270.709 C 234.02 266.609 244.32 262.609 246.72 262.409 C 266.62 260.309 278.22 264.709 278.22 280.009 C 278.22 290.809 265.12 291.809 253.62 291.809 C 247.42 291.809 238.22 291.409 226.82 291.809 C 226.32 284.509 224.92 277.509 222.52 270.709 Z" bx:origin="-0.166417 -2.70702"/>
  <path style="fill:#F4B382;" d="M 201.12 262.909 C 216.82 263.409 234.62 263.809 238.52 262.609 C 254.72 257.509 269.52 259.309 269.92 262.909 C 269.92 262.909 232.12 276.109 203.62 284.209 C 192.62 287.309 188.92 262.509 201.12 262.909 Z" bx:origin="0.258282 -3.134589"/>
  <path style="fill:#3D3C3C;" d="M 201.12 262.909 C 188.92 262.509 175.62 259.109 171.12 258.009 C 161.92 255.709 151.22 252.409 148.42 267.709 C 145.72 282.809 161.52 284.309 172.92 286.009 C 179.92 287.009 192.52 287.409 203.52 284.209 C 201.82 277.209 201.02 270.009 201.12 262.909 Z" bx:origin="1.175626 -2.443243"/>
  <g transform="matrix(1, 0, 0, 1, -35.479778, -48.091385)" bx:origin="0.495506 0.171542">
    <path style="fill:#F4B382;" d="M198.6,306.6l-23.3-1.9l-0.4-3l2.4-0.3l6.6-0.8l0.6-2.6l4.8-0.2l4,0.8l3.9-1.6l10.9-13.5 c0.3-4.8,1.1-12.3-0.2-26.2c-1.8-18.2,0.1-38.9,5.1-41.5c6.5-3.4,16.2-3.8,16.2-3.8s-4.3,22.8-6.9,22.9c-1,0-0.1,24.4-0.9,34.9 c-0.6,8.9-0.8,15.3-3,18.8S198.6,306.6,198.6,306.6z"/>
    <path style="fill:#F4B382;" d="M300.2,312.6l23.3-1.9l0.4-3l-2.4-0.3l-6.6-0.8l-0.6-2.6l-4.8-0.2l-4,0.8l-3.9-1.6l-13.5-19.7 c-0.3-4.8-1.1-12.3,0.2-26.2c1.8-18.2-0.1-38.9-5.1-41.5c-6.5-3.4-16.2-3.8-16.2-3.8s4.3,22.8,6.9,22.9c1,0,0.1,24.4,0.9,34.9 c0.6,8.9,0.8,15.3,3,18.8s16.7,17.9,16.7,17.9L300.2,312.6z"/>
  </g>
  <path style="fill:#E2A379;" d="M 221.02 151.409 L 204.12 151.409 C 206.72 159.409 204.32 163.009 204.32 163.009 C 204.32 163.009 204.82 168.209 212.62 168.209 C 220.32 168.209 220.82 163.009 220.82 163.009 C 220.82 163.009 218.42 159.309 221.02 151.409 Z" bx:origin="0.540272 1.761369"/>
  <path style="fill:#F4B382;" d="M 229.92 128.109 C 229.92 108.009 222.12 103.409 212.62 103.409 C 203.02 103.409 195.32 108.009 195.32 128.109 C 195.32 134.909 196.52 140.209 198.32 144.309 C 202.32 153.309 209.22 156.509 212.62 156.509 C 216.02 156.509 222.92 153.309 226.92 144.309 C 228.72 140.209 229.92 134.909 229.92 128.109 Z" bx:origin="0.518225 1.461224"/>
  <path style="fill:#D6876B;" d="M 217.52 148.309 C 217.52 148.309 215.32 149.409 212.62 149.409 C 209.92 149.409 207.72 148.309 207.72 148.309 C 207.72 148.009 209.32 146.209 210.32 146.109 C 210.92 146.009 212.62 146.609 212.62 146.609 C 212.62 146.609 214.22 146.009 214.92 146.109 C 215.92 146.209 217.52 148.309 217.52 148.309 Z" bx:origin="0.564346 10.54051"/>
  <path style="fill:#CC785E;" d="M 217.52 148.309 C 217.52 148.309 215.32 150.309 212.62 150.309 C 209.92 150.309 207.72 148.309 207.72 148.309 C 207.72 148.309 208.22 147.709 211.12 147.509 C 211.62 147.509 212.22 147.909 212.62 147.909 C 213.02 147.909 213.52 147.509 213.92 147.509 C 216.92 147.709 217.52 148.309 217.52 148.309 Z" bx:origin="0.564346 11.961057"/>
  <ellipse style="fill:#4C230C;" cx="212.62" cy="104.409" rx="9.1" ry="6.2" bx:origin="0.534649 6.676694"/>
  <path style="fill:#602F0F;" d="M 230.62 129.009 C 230.62 108.909 225.12 103.509 212.62 103.509 C 200.12 103.509 194.62 109.009 194.62 129.009 C 194.62 129.009 221.32 123.209 221.32 115.909 C 221.32 123.209 230.62 129.009 230.62 129.009 Z" bx:origin="0.517517 3.038863"/>
  <g transform="matrix(1, 0, 0, 1, -35.479778, -48.091385)" bx:origin="0.516289 4.362669">
    <path style="fill:#F4B382;" d="M229.1,183.3c0.9,5.5,2.1,5.7,3.8,5.4l-1.8-11.9C229.4,177.1,228.1,177.8,229.1,183.3z"/>
    <path style="fill:#F4B382;" d="M265.1,176.8l-1.8,11.9c1.7,0.3,2.8,0,3.8-5.4C268.1,177.8,266.8,177.1,265.1,176.8z"/>
  </g>
  <g transform="matrix(1, 0, 0, 1, -35.479778, -48.091385)" bx:origin="0.51751 13.554832">
    <path style="fill:#602F0F;" d="M232.1,177.9c-0.1-0.6-0.1-1.1-0.1-1.6c0-0.6,0.1-1,0.1-1l-2,0.8c0,0.3,0,0.6,0,0.9 c0,0,0.2-0.1,0.6-0.2c0,0,0,0-0.1,0c0.3,0.5,0.6,1.2,1,2.3C231.6,179.2,232.4,179.8,232.1,177.9z"/>
    <path style="fill:#602F0F;" d="M264.1,176.4c0,0.4,0,1-0.1,1.5c-0.3,1.8,0.5,1.2,0.5,1.2c0.3-1.1,0.7-1.8,1-2.3 c0.4,0.1,0.6,0.2,0.6,0.2c0-0.3,0-0.6,0-0.9l-2-0.8C264,175.4,264.1,175.8,264.1,176.4"/>
  </g>
  <g id="style=stroke" transform="matrix(1, 0, 0, 1, 89.412102, 166.109406)" bx:origin="0.5 0.479875">
    <g id="heart">
      <path id="vector (Stroke)" fill-rule="evenodd" clip-rule="evenodd" d="M 37.579 -130.016 C -13.973 -130.016 -55.881 -89.671 -55.881 -39.655 C -55.881 21.041 -26.739 69.657 9.958 105.782 C 46.819 142.077 90.42 164.816 116.492 173.367 L 116.627 173.423 C 117.893 173.852 120.497 174.3 123.839 174.3 C 127.156 174.3 129.759 173.852 131.026 173.423 L 131.162 173.367 C 157.257 164.816 200.836 142.077 237.695 105.782 C 274.393 69.657 303.56 21.041 303.56 -39.655 C 303.56 -89.671 261.628 -130.016 210.099 -130.016 C 179.741 -130.016 152.538 -115.846 135.536 -93.853 C 132.77 -90.287 128.446 -88.196 123.839 -88.196 C 119.22 -88.196 114.882 -90.287 112.143 -93.853 C 95.127 -115.846 68.098 -130.016 37.579 -130.016 Z M -85.025 -39.655 C -85.025 -105.018 -30.192 -158.021 37.579 -158.021 C 71.304 -158.021 101.772 -144.84 123.839 -123.575 C 145.954 -144.84 176.533 -158.021 210.099 -158.021 C 277.857 -158.021 332.702 -105.018 332.702 -39.655 C 332.702 30.357 298.891 85.619 258.556 125.348 C 218.416 164.853 170.919 189.908 140.645 199.859 C 135.327 201.651 129.219 202.305 123.839 202.305 C 118.433 202.305 112.339 201.651 107.019 199.859 C 76.747 189.908 29.236 164.853 -10.903 125.348 C -51.239 85.619 -85.025 30.357 -85.025 -39.655 Z" style=""/>
    </g>
  </g>
</svg>